<svg width="105" height="105" viewBox="0 0 105 105" fill="none" xmlns="http://www.w3.org/2000/svg">
<rect width="105" height="105" fill="#1E1E1E"/>
<rect x="49.7415" y="0.955017" width="73" height="73" transform="rotate(41.9366 49.7415 0.955017)" fill="#02121B"/>
<rect x="88.983" y="10" width="73" height="73" transform="rotate(88.7635 88.983 10)" fill="#02121B"/>
<path d="M66.8523 41.6051L58.5426 42.1165C58.4006 41.4062 58.0952 40.767 57.6264 40.1989C57.1577 39.6165 56.5398 39.1548 55.7727 38.8139C55.0199 38.4588 54.1179 38.2812 53.0668 38.2812C51.6605 38.2812 50.4744 38.5795 49.5085 39.1761C48.5426 39.7585 48.0597 40.5398 48.0597 41.5199C48.0597 42.3011 48.3722 42.9616 48.9972 43.5014C49.6222 44.0412 50.6946 44.4744 52.2145 44.8011L58.1378 45.9943C61.3196 46.6477 63.6918 47.6989 65.2543 49.1477C66.8168 50.5966 67.598 52.5 67.598 54.858C67.598 57.0028 66.9659 58.8849 65.7017 60.5043C64.4517 62.1236 62.733 63.3878 60.5455 64.2969C58.3722 65.1918 55.8651 65.6392 53.0241 65.6392C48.6918 65.6392 45.2401 64.7372 42.669 62.9332C40.1122 61.1151 38.6136 58.6435 38.1733 55.5185L47.1009 55.0497C47.3707 56.3707 48.0241 57.3793 49.0611 58.0753C50.098 58.7571 51.4261 59.098 53.0455 59.098C54.6364 59.098 55.9148 58.7926 56.8807 58.1818C57.8608 57.5568 58.358 56.7543 58.3722 55.7741C58.358 54.9503 58.0099 54.2756 57.3281 53.75C56.6463 53.2102 55.5952 52.7983 54.1747 52.5142L48.5071 51.3849C45.3111 50.7457 42.9318 49.6378 41.3693 48.0611C39.821 46.4844 39.0469 44.4744 39.0469 42.0312C39.0469 39.929 39.6151 38.1179 40.7514 36.598C41.902 35.0781 43.5142 33.9062 45.5881 33.0824C47.6761 32.2585 50.1193 31.8466 52.9176 31.8466C57.0511 31.8466 60.304 32.7202 62.6761 34.4673C65.0625 36.2145 66.4545 38.5937 66.8523 41.6051Z" fill="white"/>
</svg>
